<?xml version="1.0" encoding="utf-8"?>
<!-- Generator: Adobe Illustrator 21.0.2, SVG Export Plug-In . SVG Version: 6.00 Build 0)  -->
<svg version="1.1" id="Layer_1" xmlns="http://www.w3.org/2000/svg" xmlns:xlink="http://www.w3.org/1999/xlink" x="0px" y="0px"
	 width="135px" height="40px" viewBox="0 0 135 40" style="enable-background:new 0 0 135 40;" xml:space="preserve">
<style type="text/css">
	.st0{display:none;}
	.st1{display:inline;}
	.st2{fill:#FFFFFF;fill-opacity:0;}
	.st3{fill:#A6A6A6;}
	.st4{fill:#FFFFFF;stroke:#FFFFFF;stroke-width:0.2;stroke-miterlimit:10;}
	.st5{fill:#FFFFFF;}
	.st6{fill:url(#SVGID_1_);}
	.st7{fill:url(#SVGID_2_);}
	.st8{fill:url(#SVGID_3_);}
	.st9{fill:url(#SVGID_4_);}
	.st10{opacity:0.2;enable-background:new    ;}
	.st11{opacity:0.12;enable-background:new    ;}
	.st12{opacity:0.25;fill:#FFFFFF;enable-background:new    ;}
</style>
<g id="artwork" class="st0">
	<g class="st1">
		<rect x="-10" y="-10" class="st2" width="155" height="60"/>
		<g>
			<path d="M130,40H5c-2.8,0-5-2.2-5-5V5c0-2.8,2.2-5,5-5h125c2.8,0,5,2.2,5,5v30C135,37.8,132.8,40,130,40z"/>
		</g>
		<g>
			<g>
				<path class="st3" d="M130,0.8c2.3,0,4.2,1.9,4.2,4.2v30c0,2.3-1.9,4.2-4.2,4.2H5c-2.3,0-4.2-1.9-4.2-4.2V5
					c0-2.3,1.9-4.2,4.2-4.2H130 M130,0H5C2.2,0,0,2.2,0,5v30c0,2.8,2.2,5,5,5h125c2.8,0,5-2.2,5-5V5C135,2.2,132.8,0,130,0L130,0z"
					/>
			</g>
		</g>
		<g>
			<path class="st4" d="M47.4,10.2c0,0.8-0.2,1.5-0.7,2c-0.6,0.6-1.3,0.9-2.2,0.9c-0.9,0-1.6-0.3-2.2-0.9c-0.6-0.6-0.9-1.3-0.9-2.2
				c0-0.9,0.3-1.6,0.9-2.2c0.6-0.6,1.3-0.9,2.2-0.9c0.4,0,0.8,0.1,1.2,0.3c0.4,0.2,0.7,0.4,0.9,0.7l-0.5,0.5
				c-0.4-0.5-0.9-0.7-1.6-0.7c-0.6,0-1.2,0.2-1.6,0.7s-0.7,1-0.7,1.7s0.2,1.3,0.7,1.7c0.5,0.4,1,0.7,1.6,0.7c0.7,0,1.2-0.2,1.7-0.7
				c0.3-0.3,0.5-0.7,0.5-1.2h-2.2V9.8h2.9C47.4,9.9,47.4,10.1,47.4,10.2z"/>
			<path class="st4" d="M52,7.7h-2.7v1.9h2.5v0.7h-2.5v1.9H52V13h-3.5V7H52V7.7z"/>
			<path class="st4" d="M55.3,13h-0.8V7.7h-1.7V7H57v0.7h-1.7C55.3,7.7,55.3,13,55.3,13z"/>
			<path class="st4" d="M59.9,13V7h0.8v6H59.9z"/>
			<path class="st4" d="M64.1,13h-0.8V7.7h-1.7V7h4.1v0.7h-1.7C64.1,7.7,64.1,13,64.1,13z"/>
			<path class="st4" d="M73.6,12.2c-0.6,0.6-1.3,0.9-2.2,0.9s-1.6-0.3-2.2-0.9c-0.6-0.6-0.9-1.3-0.9-2.2s0.3-1.6,0.9-2.2
				c0.6-0.6,1.3-0.9,2.2-0.9c0.9,0,1.6,0.3,2.2,0.9s0.9,1.3,0.9,2.2C74.5,10.9,74.2,11.6,73.6,12.2z M69.8,11.7
				c0.4,0.5,1,0.7,1.6,0.7s1.2-0.2,1.6-0.7c0.4-0.5,0.7-1,0.7-1.7S73.5,8.7,73,8.3c-0.4-0.5-1-0.7-1.6-0.7s-1.2,0.2-1.6,0.7
				c-0.4,0.5-0.7,1-0.7,1.7S69.3,11.3,69.8,11.7z"/>
			<path class="st4" d="M75.6,13V7h0.9l2.9,4.7h0l0-1.2V7h0.8v6h-0.8l-3.1-4.9h0l0,1.2V13H75.6z"/>
		</g>
		<path class="st5" d="M68.1,21.8c-2.4,0-4.3,1.8-4.3,4.3c0,2.4,1.9,4.3,4.3,4.3s4.3-1.8,4.3-4.3C72.4,23.5,70.5,21.8,68.1,21.8z
			 M68.1,28.6c-1.3,0-2.4-1.1-2.4-2.6c0-1.5,1.1-2.6,2.4-2.6s2.4,1,2.4,2.6C70.5,27.5,69.4,28.6,68.1,28.6z M58.8,21.8
			c-2.4,0-4.3,1.8-4.3,4.3c0,2.4,1.9,4.3,4.3,4.3s4.3-1.8,4.3-4.3C63.1,23.5,61.2,21.8,58.8,21.8z M58.8,28.6
			c-1.3,0-2.4-1.1-2.4-2.6c0-1.5,1.1-2.6,2.4-2.6s2.4,1,2.4,2.6C61.2,27.5,60.1,28.6,58.8,28.6z M47.7,23.1v1.8h4.3
			c-0.1,1-0.5,1.8-1,2.3c-0.6,0.6-1.6,1.3-3.3,1.3c-2.7,0-4.7-2.1-4.7-4.8s2.1-4.8,4.7-4.8c1.4,0,2.5,0.6,3.3,1.3l1.3-1.3
			c-1.1-1-2.5-1.8-4.5-1.8c-3.6,0-6.7,3-6.7,6.6s3.1,6.6,6.7,6.6c2,0,3.4-0.6,4.6-1.9c1.2-1.2,1.6-2.9,1.6-4.2c0-0.4,0-0.8-0.1-1.1
			L47.7,23.1L47.7,23.1z M93.1,24.5c-0.4-1-1.4-2.7-3.6-2.7c-2.2,0-4,1.7-4,4.3c0,2.4,1.8,4.3,4.2,4.3c1.9,0,3.1-1.2,3.5-1.9l-1.4-1
			c-0.5,0.7-1.1,1.2-2.1,1.2c-1,0-1.6-0.4-2.1-1.3l5.7-2.4L93.1,24.5z M87.3,25.9c0-1.6,1.3-2.5,2.2-2.5c0.7,0,1.4,0.4,1.6,0.9
			L87.3,25.9z M82.6,30h1.9V17.5h-1.9V30z M79.6,22.7L79.6,22.7c-0.5-0.5-1.3-1-2.3-1c-2.1,0-4.1,1.9-4.1,4.3c0,2.4,1.9,4.2,4.1,4.2
			c1,0,1.8-0.5,2.2-1h0.1v0.6c0,1.6-0.9,2.5-2.3,2.5c-1.1,0-1.9-0.8-2.1-1.5l-1.6,0.7c0.5,1.1,1.7,2.5,3.8,2.5c2.2,0,4-1.3,4-4.4V22
			h-1.8V22.7z M77.4,28.6c-1.3,0-2.4-1.1-2.4-2.6c0-1.5,1.1-2.6,2.4-2.6c1.3,0,2.3,1.1,2.3,2.6C79.7,27.5,78.7,28.6,77.4,28.6z
			 M101.8,17.5h-4.5V30h1.9v-4.7h2.6c2.1,0,4.1-1.5,4.1-3.9S103.9,17.5,101.8,17.5z M101.9,23.5h-2.7v-4.3h2.7
			c1.4,0,2.2,1.2,2.2,2.1C104,22.3,103.2,23.5,101.9,23.5z M113.4,21.7c-1.4,0-2.8,0.6-3.3,1.9l1.7,0.7c0.4-0.7,1-0.9,1.7-0.9
			c1,0,1.9,0.6,2,1.6v0.1c-0.3-0.2-1.1-0.5-1.9-0.5c-1.8,0-3.6,1-3.6,2.8c0,1.7,1.5,2.8,3.1,2.8c1.3,0,1.9-0.6,2.4-1.2h0.1v1h1.8
			v-4.8C117.2,23,115.5,21.7,113.4,21.7z M113.2,28.6c-0.6,0-1.5-0.3-1.5-1.1c0-1,1.1-1.3,2-1.3c0.8,0,1.2,0.2,1.7,0.4
			C115.2,27.8,114.2,28.6,113.2,28.6z M123.7,22l-2.1,5.4h-0.1l-2.2-5.4h-2l3.3,7.6l-1.9,4.2h1.9l5.1-11.8H123.7z M106.9,30h1.9
			V17.5h-1.9V30z"/>
		<g>
			
				<linearGradient id="SVGID_1_" gradientUnits="userSpaceOnUse" x1="21.7995" y1="2.7095" x2="5.0171" y2="19.4919" gradientTransform="matrix(1 0 0 1 0 6)">
				<stop  offset="0" style="stop-color:#00A0FF"/>
				<stop  offset="6.599999e-03" style="stop-color:#00A1FF"/>
				<stop  offset="0.2601" style="stop-color:#00BEFF"/>
				<stop  offset="0.5122" style="stop-color:#00D2FF"/>
				<stop  offset="0.7604" style="stop-color:#00DFFF"/>
				<stop  offset="1" style="stop-color:#00E3FF"/>
			</linearGradient>
			<path class="st6" d="M10.4,7.5C10.1,7.8,10,8.3,10,8.9v22.1c0,0.6,0.2,1.1,0.5,1.4l0.1,0.1l12.4-12.4V20v-0.1L10.4,7.5L10.4,7.5z
				"/>
			
				<linearGradient id="SVGID_2_" gradientUnits="userSpaceOnUse" x1="33.8344" y1="14.0015" x2="9.6375" y2="14.0015" gradientTransform="matrix(1 0 0 1 0 6)">
				<stop  offset="0" style="stop-color:#FFE000"/>
				<stop  offset="0.4087" style="stop-color:#FFBD00"/>
				<stop  offset="0.7754" style="stop-color:#FFA500"/>
				<stop  offset="1" style="stop-color:#FF9C00"/>
			</linearGradient>
			<path class="st7" d="M27,24.3l-4.1-4.1V20v-0.1l4.1-4.1l0.1,0.1l4.9,2.8c1.4,0.8,1.4,2.1,0,2.9L27,24.3L27,24.3z"/>
			
				<linearGradient id="SVGID_3_" gradientUnits="userSpaceOnUse" x1="24.827" y1="16.296" x2="2.0687" y2="39.0543" gradientTransform="matrix(1 0 0 1 0 6)">
				<stop  offset="0" style="stop-color:#FF3A44"/>
				<stop  offset="1" style="stop-color:#C31162"/>
			</linearGradient>
			<path class="st8" d="M27.1,24.2L22.9,20L10.4,32.5c0.5,0.5,1.2,0.5,2.1,0.1L27.1,24.2"/>
			
				<linearGradient id="SVGID_4_" gradientUnits="userSpaceOnUse" x1="7.2974" y1="-5.8239" x2="17.46" y2="4.3386" gradientTransform="matrix(1 0 0 1 0 6)">
				<stop  offset="0" style="stop-color:#32A071"/>
				<stop  offset="6.850000e-02" style="stop-color:#2DA771"/>
				<stop  offset="0.4762" style="stop-color:#15CF74"/>
				<stop  offset="0.8009" style="stop-color:#06E775"/>
				<stop  offset="1" style="stop-color:#00F076"/>
			</linearGradient>
			<path class="st9" d="M27.1,15.8L12.5,7.5c-0.9-0.5-1.6-0.4-2.1,0.1L22.9,20L27.1,15.8z"/>
			<g>
				<path class="st10" d="M27,24.1l-14.5,8.2c-0.8,0.5-1.5,0.4-2,0l0,0l-0.1,0.1l0,0l0.1,0.1l0,0c0.5,0.4,1.2,0.5,2,0L27,24.1
					L27,24.1z"/>
				<path class="st11" d="M10.4,32.3C10.1,32,10,31.5,10,30.9v0.1c0,0.6,0.2,1.1,0.5,1.4V32.3L10.4,32.3z"/>
			</g>
			<path class="st11" d="M32,21.3l-5,2.8l0.1,0.1l4.9-2.8c0.7-0.4,1-0.9,1-1.4l0,0C33,20.5,32.6,20.9,32,21.3z"/>
			<path class="st12" d="M12.5,7.6L32,18.7c0.6,0.4,1,0.8,1,1.3l0,0c0-0.5-0.3-1-1-1.4L12.5,7.5C11.1,6.7,10,7.3,10,8.9v0.1
				C10,7.5,11.1,6.8,12.5,7.6z"/>
		</g>
	</g>
</g>
<g id="Layer_2">
	<g>
		<path class="st3" d="M130.2,40H4.7C2.1,40,0,37.9,0,35.3V4.7C0,2.1,2.1,0,4.7,0h125.5c2.6,0,4.8,2.1,4.8,4.7v30.5
			C135,37.9,132.8,40,130.2,40L130.2,40z"/>
		<path d="M134,35.3c0,2.1-1.7,3.8-3.8,3.8H4.7c-2.1,0-3.8-1.7-3.8-3.8V4.7c0-2.1,1.7-3.8,3.8-3.8h125.5c2.1,0,3.8,1.7,3.8,3.8
			L134,35.3L134,35.3z"/>
		<g>
			<g>
				<path class="st5" d="M30.1,19.8c0-3.2,2.6-4.8,2.8-4.9c-1.5-2.2-3.9-2.5-4.7-2.5c-2-0.2-3.9,1.2-4.9,1.2c-1,0-2.6-1.2-4.2-1.1
					c-2.1,0-4.1,1.3-5.2,3.2c-2.3,3.9-0.6,9.7,1.6,12.9c1.1,1.6,2.4,3.3,4,3.2c1.6-0.1,2.2-1,4.2-1c1.9,0,2.5,1,4.2,1
					c1.7,0,2.8-1.6,3.9-3.1c1.3-1.8,1.8-3.5,1.8-3.6C33.5,24.9,30.2,23.6,30.1,19.8z"/>
				<path class="st5" d="M26.9,10.3c0.9-1.1,1.5-2.6,1.3-4.1c-1.3,0.1-2.8,0.9-3.8,1.9c-0.8,0.9-1.5,2.5-1.3,3.9
					C24.6,12.2,26,11.4,26.9,10.3z"/>
			</g>
		</g>
		<g>
			<path class="st5" d="M53.6,31.5h-2.3l-1.2-3.9h-4.3l-1.2,3.9h-2.2l4.3-13.3h2.6L53.6,31.5z M49.8,26l-1.1-3.5
				c-0.1-0.4-0.3-1.2-0.7-2.5h0c-0.1,0.6-0.3,1.4-0.6,2.5L46.2,26C46.2,26,49.8,26,49.8,26z"/>
			<path class="st5" d="M64.7,26.6c0,1.6-0.4,2.9-1.3,3.9c-0.8,0.8-1.8,1.3-2.9,1.3c-1.3,0-2.2-0.5-2.7-1.4h0v5.1h-2.1V25.1
				c0-1,0-2.1-0.1-3.2h1.9l0.1,1.5h0c0.7-1.1,1.8-1.7,3.2-1.7c1.1,0,2.1,0.4,2.8,1.3C64.3,23.9,64.7,25.1,64.7,26.6z M62.5,26.7
				c0-0.9-0.2-1.7-0.6-2.3c-0.5-0.6-1.1-0.9-1.9-0.9c-0.5,0-1,0.2-1.4,0.5c-0.4,0.3-0.7,0.8-0.8,1.4c-0.1,0.3-0.1,0.5-0.1,0.7v1.6
				c0,0.7,0.2,1.3,0.6,1.8c0.4,0.5,1,0.7,1.7,0.7c0.8,0,1.4-0.3,1.9-0.9C62.3,28.5,62.5,27.7,62.5,26.7z"/>
			<path class="st5" d="M75.7,26.6c0,1.6-0.4,2.9-1.3,3.9c-0.8,0.8-1.8,1.3-2.9,1.3c-1.3,0-2.2-0.5-2.7-1.4h0v5.1h-2.1V25.1
				c0-1,0-2.1-0.1-3.2h1.9l0.1,1.5h0c0.7-1.1,1.8-1.7,3.2-1.7c1.1,0,2.1,0.4,2.8,1.3C75.3,23.9,75.7,25.1,75.7,26.6z M73.5,26.7
				c0-0.9-0.2-1.7-0.6-2.3c-0.5-0.6-1.1-0.9-1.9-0.9c-0.5,0-1,0.2-1.4,0.5c-0.4,0.3-0.7,0.8-0.8,1.4c-0.1,0.3-0.1,0.5-0.1,0.7v1.6
				c0,0.7,0.2,1.3,0.6,1.8c0.4,0.5,1,0.7,1.7,0.7c0.8,0,1.4-0.3,1.9-0.9C73.3,28.5,73.5,27.7,73.5,26.7z"/>
			<path class="st5" d="M88,27.8c0,1.1-0.4,2.1-1.2,2.8c-0.9,0.8-2.1,1.2-3.6,1.2c-1.4,0-2.6-0.3-3.4-0.8l0.5-1.8
				c0.9,0.6,2,0.8,3.1,0.8c0.8,0,1.4-0.2,1.9-0.5c0.4-0.4,0.7-0.8,0.7-1.5c0-0.5-0.2-1-0.6-1.4c-0.4-0.4-1-0.7-1.8-1
				c-2.3-0.9-3.5-2.1-3.5-3.8c0-1.1,0.4-2,1.2-2.7c0.8-0.7,1.9-1,3.3-1c1.2,0,2.2,0.2,3,0.6L87,20.4c-0.8-0.4-1.6-0.6-2.5-0.6
				c-0.8,0-1.3,0.2-1.8,0.6c-0.4,0.3-0.5,0.7-0.5,1.2c0,0.5,0.2,1,0.6,1.3c0.4,0.3,1,0.7,1.9,1c1.1,0.5,2,1,2.5,1.6
				C87.8,26.1,88,26.9,88,27.8z"/>
			<path class="st5" d="M95.1,23.5h-2.3v4.7c0,1.2,0.4,1.8,1.2,1.8c0.4,0,0.7,0,0.9-0.1l0.1,1.6c-0.4,0.2-1,0.2-1.7,0.2
				c-0.8,0-1.5-0.3-2-0.8c-0.5-0.5-0.7-1.4-0.7-2.6v-4.8h-1.4v-1.6h1.4v-1.8l2.1-0.6v2.4h2.3C95.1,21.9,95.1,23.5,95.1,23.5z"/>
			<path class="st5" d="M105.7,26.6c0,1.5-0.4,2.7-1.3,3.6c-0.9,1-2.1,1.5-3.5,1.5c-1.4,0-2.5-0.5-3.4-1.4s-1.3-2.1-1.3-3.5
				c0-1.5,0.4-2.7,1.3-3.7c0.9-0.9,2-1.4,3.5-1.4c1.4,0,2.5,0.5,3.4,1.4C105.3,24,105.7,25.2,105.7,26.6z M103.5,26.7
				c0-0.9-0.2-1.6-0.6-2.3c-0.4-0.8-1.1-1.1-1.9-1.1c-0.9,0-1.5,0.4-2,1.1c-0.4,0.6-0.6,1.4-0.6,2.3c0,0.9,0.2,1.6,0.6,2.3
				c0.5,0.8,1.1,1.1,1.9,1.1c0.8,0,1.5-0.4,1.9-1.2C103.3,28.3,103.5,27.6,103.5,26.7z"/>
			<path class="st5" d="M112.6,23.8c-0.2,0-0.4-0.1-0.7-0.1c-0.8,0-1.3,0.3-1.7,0.8c-0.4,0.5-0.5,1.1-0.5,1.9v5h-2.1l0-6.6
				c0-1.1,0-2.1-0.1-3h1.9l0.1,1.8h0.1c0.2-0.6,0.6-1.1,1.1-1.5c0.5-0.3,1-0.5,1.5-0.5c0.2,0,0.4,0,0.5,0
				C112.6,21.8,112.6,23.8,112.6,23.8z"/>
			<path class="st5" d="M122.2,26.3c0,0.4,0,0.7-0.1,1h-6.4c0,0.9,0.3,1.7,0.9,2.2c0.5,0.4,1.2,0.7,2.1,0.7c0.9,0,1.8-0.2,2.6-0.5
				l0.3,1.5c-0.9,0.4-2,0.6-3.2,0.6c-1.5,0-2.7-0.4-3.5-1.3c-0.8-0.9-1.3-2-1.3-3.5c0-1.4,0.4-2.7,1.2-3.6c0.8-1,1.9-1.5,3.4-1.5
				c1.4,0,2.4,0.5,3.1,1.5C121.9,24,122.2,25.1,122.2,26.3z M120.1,25.7c0-0.6-0.1-1.2-0.4-1.6c-0.4-0.6-0.9-0.9-1.7-0.9
				c-0.7,0-1.3,0.3-1.7,0.9c-0.4,0.5-0.6,1-0.6,1.7L120.1,25.7L120.1,25.7z"/>
		</g>
		<g>
			<g>
				<path class="st5" d="M49,10c0,1.2-0.4,2.1-1.1,2.7c-0.7,0.5-1.6,0.8-2.8,0.8c-0.6,0-1.1,0-1.5-0.1V7c0.6-0.1,1.2-0.1,1.8-0.1
					c1.1,0,2,0.2,2.6,0.7C48.7,8.2,49,9,49,10z M47.9,10c0-0.8-0.2-1.3-0.6-1.8c-0.4-0.4-1-0.6-1.8-0.6c-0.3,0-0.6,0-0.8,0.1v4.9
					c0.1,0,0.4,0,0.7,0c0.8,0,1.4-0.2,1.9-0.7C47.7,11.5,47.9,10.9,47.9,10z"/>
				<path class="st5" d="M54.9,11c0,0.7-0.2,1.3-0.6,1.8c-0.4,0.5-1,0.7-1.7,0.7c-0.7,0-1.2-0.2-1.7-0.7c-0.4-0.5-0.6-1-0.6-1.7
					c0-0.7,0.2-1.3,0.6-1.8s1-0.7,1.7-0.7c0.7,0,1.2,0.2,1.7,0.7C54.7,9.8,54.9,10.3,54.9,11z M53.8,11.1c0-0.4-0.1-0.8-0.3-1.1
					c-0.2-0.4-0.5-0.6-0.9-0.6c-0.4,0-0.7,0.2-1,0.6c-0.2,0.3-0.3,0.7-0.3,1.1c0,0.4,0.1,0.8,0.3,1.1c0.2,0.4,0.5,0.6,1,0.6
					c0.4,0,0.7-0.2,0.9-0.6C53.7,11.9,53.8,11.5,53.8,11.1z"/>
				<path class="st5" d="M62.8,8.7l-1.5,4.7h-1l-0.6-2c-0.2-0.5-0.3-1-0.4-1.5h0c-0.1,0.5-0.2,1-0.4,1.5l-0.6,2h-1l-1.4-4.7H57
					l0.5,2.2c0.1,0.5,0.2,1,0.3,1.5h0c0.1-0.4,0.2-0.9,0.4-1.5l0.7-2.2h0.9l0.6,2.2c0.2,0.5,0.3,1.1,0.4,1.6h0
					c0.1-0.5,0.2-1,0.3-1.6l0.6-2.2L62.8,8.7L62.8,8.7z"/>
				<path class="st5" d="M68.2,13.4h-1v-2.7c0-0.8-0.3-1.2-0.9-1.2c-0.3,0-0.6,0.1-0.8,0.3c-0.2,0.2-0.3,0.5-0.3,0.8v2.8h-1v-3.4
					c0-0.4,0-0.9,0-1.3H65l0,0.7h0c0.1-0.2,0.3-0.4,0.5-0.6c0.3-0.2,0.6-0.3,0.9-0.3c0.4,0,0.8,0.1,1.1,0.4c0.4,0.3,0.5,0.9,0.5,1.6
					V13.4z"/>
				<path class="st5" d="M71.1,13.4h-1V6.6h1V13.4z"/>
				<path class="st5" d="M77.3,11c0,0.7-0.2,1.3-0.6,1.8c-0.4,0.5-1,0.7-1.7,0.7c-0.7,0-1.2-0.2-1.7-0.7c-0.4-0.5-0.6-1-0.6-1.7
					c0-0.7,0.2-1.3,0.6-1.8s1-0.7,1.7-0.7c0.7,0,1.2,0.2,1.7,0.7C77.1,9.8,77.3,10.3,77.3,11z M76.2,11.1c0-0.4-0.1-0.8-0.3-1.1
					c-0.2-0.4-0.5-0.6-0.9-0.6c-0.4,0-0.7,0.2-1,0.6c-0.2,0.3-0.3,0.7-0.3,1.1c0,0.4,0.1,0.8,0.3,1.1c0.2,0.4,0.5,0.6,1,0.6
					c0.4,0,0.7-0.2,0.9-0.6C76.1,11.9,76.2,11.5,76.2,11.1z"/>
				<path class="st5" d="M82.3,13.4h-0.9l-0.1-0.5h0c-0.3,0.4-0.8,0.6-1.4,0.6c-0.4,0-0.8-0.1-1.1-0.4c-0.2-0.3-0.4-0.6-0.4-1
					c0-0.6,0.2-1,0.7-1.3c0.5-0.3,1.2-0.5,2-0.4v-0.1c0-0.6-0.3-0.9-1-0.9c-0.5,0-0.9,0.1-1.2,0.3L78.8,9c0.4-0.3,1-0.4,1.6-0.4
					c1.2,0,1.8,0.6,1.8,2v1.7C82.3,12.8,82.3,13.2,82.3,13.4z M81.2,11.8v-0.7c-1.2,0-1.7,0.3-1.7,1c0,0.2,0.1,0.4,0.2,0.6
					c0.1,0.1,0.3,0.2,0.5,0.2c0.2,0,0.4-0.1,0.6-0.2c0.2-0.1,0.3-0.3,0.4-0.6C81.2,11.9,81.2,11.9,81.2,11.8z"/>
				<path class="st5" d="M88.3,13.4h-0.9l0-0.8h0c-0.3,0.6-0.8,0.9-1.5,0.9c-0.6,0-1-0.2-1.4-0.7s-0.6-1-0.6-1.7
					c0-0.8,0.2-1.4,0.6-1.9c0.4-0.4,0.9-0.7,1.5-0.7c0.6,0,1.1,0.2,1.3,0.6h0V6.6h1v5.6C88.2,12.6,88.3,13,88.3,13.4z M87.2,11.4
					v-0.8c0-0.1,0-0.2,0-0.3c-0.1-0.3-0.2-0.5-0.4-0.6c-0.2-0.2-0.4-0.3-0.7-0.3c-0.4,0-0.7,0.2-0.9,0.5c-0.2,0.3-0.3,0.7-0.3,1.2
					c0,0.5,0.1,0.8,0.3,1.1c0.2,0.3,0.5,0.5,0.9,0.5c0.3,0,0.6-0.1,0.8-0.4C87.1,12.1,87.2,11.8,87.2,11.4z"/>
				<path class="st5" d="M97.2,11c0,0.7-0.2,1.3-0.6,1.8c-0.4,0.5-1,0.7-1.7,0.7c-0.7,0-1.2-0.2-1.7-0.7c-0.4-0.5-0.6-1-0.6-1.7
					c0-0.7,0.2-1.3,0.6-1.8s1-0.7,1.7-0.7c0.7,0,1.2,0.2,1.7,0.7C97,9.8,97.2,10.3,97.2,11z M96.2,11.1c0-0.4-0.1-0.8-0.3-1.1
					c-0.2-0.4-0.5-0.6-0.9-0.6c-0.4,0-0.7,0.2-1,0.6c-0.2,0.3-0.3,0.7-0.3,1.1c0,0.4,0.1,0.8,0.3,1.1c0.2,0.4,0.5,0.6,1,0.6
					c0.4,0,0.7-0.2,0.9-0.6C96.1,11.9,96.2,11.5,96.2,11.1z"/>
				<path class="st5" d="M102.9,13.4h-1v-2.7c0-0.8-0.3-1.2-1-1.2c-0.3,0-0.6,0.1-0.8,0.3s-0.3,0.5-0.3,0.8v2.8h-1v-3.4
					c0-0.4,0-0.9,0-1.3h0.9l0,0.7h0c0.1-0.2,0.3-0.4,0.5-0.6c0.3-0.2,0.6-0.3,1-0.3c0.4,0,0.8,0.1,1.1,0.4c0.4,0.3,0.5,0.9,0.5,1.6
					V13.4z"/>
				<path class="st5" d="M109.9,9.5h-1.2v2.3c0,0.6,0.2,0.9,0.6,0.9c0.2,0,0.3,0,0.5,0l0,0.8c-0.2,0.1-0.5,0.1-0.8,0.1
					c-0.4,0-0.7-0.1-1-0.4c-0.2-0.3-0.3-0.7-0.3-1.3V9.5h-0.7V8.7h0.7V7.9l1-0.3v1.2h1.2L109.9,9.5L109.9,9.5z"/>
				<path class="st5" d="M115.5,13.4h-1v-2.7c0-0.8-0.3-1.3-0.9-1.3c-0.5,0-0.8,0.2-1,0.7c0,0.1,0,0.2,0,0.4v2.8h-1V6.6h1v2.8h0
					c0.3-0.5,0.8-0.8,1.4-0.8c0.4,0,0.8,0.1,1.1,0.4c0.4,0.4,0.5,0.9,0.5,1.6C115.5,10.6,115.5,13.4,115.5,13.4z"/>
				<path class="st5" d="M121.2,10.9c0,0.2,0,0.3,0,0.5H118c0,0.5,0.2,0.8,0.5,1.1c0.3,0.2,0.6,0.3,1,0.3c0.5,0,0.9-0.1,1.3-0.2
					l0.2,0.7c-0.4,0.2-1,0.3-1.6,0.3c-0.7,0-1.3-0.2-1.7-0.6c-0.4-0.4-0.6-1-0.6-1.7c0-0.7,0.2-1.3,0.6-1.8c0.4-0.5,1-0.8,1.6-0.8
					c0.7,0,1.2,0.3,1.5,0.8C121.1,9.8,121.2,10.3,121.2,10.9z M120.2,10.6c0-0.3-0.1-0.6-0.2-0.8c-0.2-0.3-0.5-0.4-0.8-0.4
					c-0.3,0-0.6,0.1-0.8,0.4c-0.2,0.2-0.3,0.5-0.3,0.8H120.2z"/>
			</g>
		</g>
	</g>
</g>
</svg>
