<svg id="Layer_1" data-name="Layer 1" xmlns="http://www.w3.org/2000/svg" viewBox="0 0 54 54"><defs><style>.cls-1{fill:#fff;}.cls-2{fill:#f0a86e;}.cls-3{fill:#f27802;}</style></defs><title>pro-avatar-male</title><g id="mask-2"><path id="path-1" class="cls-1" d="M9,47.09a27,27,0,0,0,35.72.33c-2.48-1.35-5.73-2.46-8.23-3.54-4.15-1.79-3.59-2.88-3.74-4.36,0-.2,0-0.4,0-0.62a12.46,12.46,0,0,0,3-4.51l0.05-.13c0.16-.42.3-0.86,0.42-1.31a2.59,2.59,0,0,0,1.72-2.13,4.21,4.21,0,0,0,.56-2.37,2.46,2.46,0,0,0-1.24-2.22c0.16-.38.31-0.77,0.43-1.17,0.62-2,0-6.47-1-8.94s-5.23-4.35-6.56-4.29c-1.16,0-1.41.58-2.1,0.23a2.06,2.06,0,0,1-.57-0.24c-1.22-.89-5.07-1.29-6.86.08a14.05,14.05,0,0,0-3.58,4.06c-1.38,2-1.82,6.76-1.69,7.78a14.91,14.91,0,0,0,.64,2.51,2.48,2.48,0,0,0-1.22,2.21,4.21,4.21,0,0,0,.56,2.37A2.56,2.56,0,0,0,17,33c0.12,0.45.27,0.9,0.43,1.32A12.61,12.61,0,0,0,20.51,39c0,0.19,0,.37,0,0.54-0.15,1.48.29,2.57-3.87,4.36C14.31,44.86,11.38,45.88,9,47.09Z"/></g><g id="R2"><g id="Artboard"><g id="pro-avatar-male"><circle id="Mask" class="cls-2" cx="27" cy="27" r="27"/><g id="Combined-Shape"><path id="path-1-2" data-name="path-1" class="cls-3" d="M9,47.09a27,27,0,0,0,35.72.33c-2.48-1.35-5.73-2.46-8.23-3.54-4.15-1.79-3.59-2.88-3.74-4.36,0-.2,0-0.4,0-0.62a12.46,12.46,0,0,0,3-4.51l0.05-.13c0.16-.42.3-0.86,0.42-1.31a2.59,2.59,0,0,0,1.72-2.13,4.21,4.21,0,0,0,.56-2.37,2.46,2.46,0,0,0-1.24-2.22c0.16-.38.31-0.77,0.43-1.17,0.62-2,0-6.47-1-8.94s-5.23-4.35-6.56-4.29c-1.16,0-1.41.58-2.1,0.23a2.06,2.06,0,0,1-.57-0.24c-1.22-.89-5.07-1.29-6.86.08a14.05,14.05,0,0,0-3.58,4.06c-1.38,2-1.82,6.76-1.69,7.78a14.91,14.91,0,0,0,.64,2.51,2.48,2.48,0,0,0-1.22,2.21,4.21,4.21,0,0,0,.56,2.37A2.56,2.56,0,0,0,17,33c0.12,0.45.27,0.9,0.43,1.32A12.61,12.61,0,0,0,20.51,39c0,0.19,0,.37,0,0.54-0.15,1.48.29,2.57-3.87,4.36C14.31,44.86,11.38,45.88,9,47.09Z"/></g></g></g></g></svg>