<svg id="Layer_1" data-name="Layer 1" xmlns="http://www.w3.org/2000/svg" viewBox="0 0 54 54"><defs><style>.cls-1{fill:#fff;}.cls-2{fill:#f0a86e;}.cls-3{fill:#f27802;}</style></defs><title>pro-avatar-female</title><g id="mask-2"><path id="path-1" class="cls-1" d="M9,47a27,27,0,0,0,36.28,0c-1.67-1.07-3.63-.93-6.14-1.78-2.05-.69-3.36-0.81-5.32-1.65-1.57-.68-1.71-2.65-1.67-5h6.77s1.23-12.82,0-20.06S32.75,8.12,27.14,8H26.86c-5.61.11-10.58,3.42-11.79,10.54s0,20.06,0,20.06h7.06c0,2.31-.1,4.28-1.67,5-2,.85-3.27,1-5.32,1.65C12.63,46.06,10.67,45.93,9,47Z"/></g><g id="R2"><g id="Artboard"><g id="pro-avatar-female"><circle id="Mask" class="cls-2" cx="27" cy="27" r="27"/><g id="Combined-Shape"><path id="path-1-2" data-name="path-1" class="cls-3" d="M9,47a27,27,0,0,0,36.28,0c-1.67-1.07-3.63-.93-6.14-1.78-2.05-.69-3.36-0.81-5.32-1.65-1.57-.68-1.71-2.65-1.67-5h6.77s1.23-12.82,0-20.06S32.75,8.12,27.14,8H26.86c-5.61.11-10.58,3.42-11.79,10.54s0,20.06,0,20.06h7.06c0,2.31-.1,4.28-1.67,5-2,.85-3.27,1-5.32,1.65C12.63,46.06,10.67,45.93,9,47Z"/></g></g></g></g></svg>