<?xml version="1.0" encoding="UTF-8"?>
<svg width="338px" height="198px" viewBox="0 0 338 198" version="1.1" xmlns="http://www.w3.org/2000/svg" xmlns:xlink="http://www.w3.org/1999/xlink">
    <!-- Generator: Sketch 44.1 (41455) - http://www.bohemiancoding.com/sketch -->
    <title>Cleaning Tools</title>
    <desc>Created with Sketch.</desc>
    <defs>
        <path d="M0.0183171689,64 C-0.350296933,41.5512786 4.84457246,25.5512786 15.6029254,16 C18.3283719,16 21.7338635,16 25.8194003,16 C22.4648893,24.586445 22.8584226,32.9197784 27,41 C31.1415774,49.0802216 36.6069416,56.7468883 43.3960923,64 L0.0183171689,64 Z" id="path-1"></path>
        <path d="M0.0183171689,64 C-0.0442075908,57.8227539 0.187143962,52.8227539 0.712371826,49 L31.6138763,49 C35.2955068,54.6031901 39.2229121,59.6031901 43.3960923,64 L0.0183171689,64 Z" id="path-2"></path>
        <path d="M32.5,9 C30.8333333,11.6666667 32.8333333,14.3333333 38.5,17 C47,21 25.8150201,21.2976304 25,16 C24.4566533,12.4682464 26.9566533,10.1349131 32.5,9 Z" id="path-3"></path>
        <path d="M48,8.00290444 L48,2 C48,0.8954305 47.1045695,-2.02906125e-16 46,0 L10,0 L10,0 C8.8954305,2.02906125e-16 8,0.8954305 8,2 L8,2 L8,20 L26,20 C26,13.4617021 35.8044947,8.14471756 48,8.00290444 Z" id="path-4"></path>
        <path d="M0,17 L4.54191635,12 L26,6.5 L26.5,0 C42.5547738,20.1749347 50.2445822,30.5452212 49.5694249,31.1108594 C48.5566891,31.9593166 36.6324228,41.1508421 34.3510023,40.4938986 C32.8300554,40.0559363 22.8936934,34.8409267 4.54191635,24.8488698 L0,17 Z" id="path-5"></path>
        <circle id="path-7" cx="16" cy="15" r="3"></circle>
        <rect id="path-8" x="25" y="152" width="8" height="8"></rect>
        <rect id="path-9" x="17" y="158" width="24" height="8" rx="2"></rect>
        <path d="M15.5740908,164 L42.4259092,164 C43.4145659,164 44.8557898,164.895431 45.6449729,166 L50.6462714,173 C51.4354545,174.104569 50.8597873,175 49.3604828,175 L8.63951725,175 C7.1402127,175 6.56454553,174.104569 7.35372863,173 L12.3550271,166 C13.1442102,164.895431 14.5854341,164 15.5740908,164 Z" id="path-10"></path>
        <rect id="path-11" x="0" y="173" width="60" height="12" rx="4"></rect>
        <path d="M27,0 L31,0 L31,0 C32.1045695,-2.02906125e-16 33,0.8954305 33,2 L33,48 L25,48 L25,2 L25,2 C25,0.8954305 25.8954305,2.02906125e-16 27,0 Z" id="path-12"></path>
        <path d="M11.8673384,46 L46.1326616,46 C52.1884105,46 56.5783882,50.8965313 55.9379512,56.9367089 L46.8059928,143.063291 C46.1655558,149.103469 42.7379545,154 39.1502311,154 L18.8497689,154 C15.2620455,154 11.8344442,149.103469 11.1940072,143.063291 L2.0620488,56.9367089 C1.4216118,50.8965313 5.8115895,46 11.8673384,46 Z" id="path-13"></path>
        <path d="M20.1163977,56 L37.8836023,56 C41.0236203,56 43.299905,58.4482657 42.9678265,61.4683544 L38.232737,104.531646 C37.9006585,107.551734 36.1233838,110 34.2630828,110 L23.7369172,110 C21.8766162,110 20.0993415,107.551734 19.767263,104.531646 L15.0321735,61.4683544 C14.700095,58.4482657 16.9763797,56 20.1163977,56 Z" id="path-14"></path>
    </defs>
    <g id="Experiment-Flow" stroke="none" stroke-width="1" fill="none" fill-rule="evenodd">
        <g id="[Instant-E]-Landing-Page" transform="translate(-19.000000, -359.000000)">
            <g id="Cleaning-Tools" transform="translate(20.000000, 359.000000)">
                <g id="bubbles" transform="translate(173.000000, 124.500000) scale(-1, 1) rotate(-90.000000) translate(-173.000000, -124.500000) translate(167.500000, 116.500000)" fill="#FDA52B">
                    <circle id="Oval-7" cx="5.5" cy="14.5" r="1.5"></circle>
                    <circle id="Oval-7" cx="8.5" cy="2.5" r="2.5"></circle>
                    <circle id="Oval-7" cx="2" cy="7" r="2"></circle>
                </g>
                <g id="Spray" transform="translate(112.000000, 121.000000)">
                    <g id="Path-3">
                        <use fill="#FFFFFF" fill-rule="evenodd" xlink:href="#path-1"></use>
                        <path stroke="#4E4D4D" stroke-width="2" d="M15.9858101,17 C16.0790516,16.9154248 16.1727265,16.8313625 16.2668347,16.7478131 L15.6029254,17 C15.7343648,17 15.8619029,17 15.9858066,17 Z M24.3851052,17 C24.8210009,17 25.2965899,17 25.8194003,17 L24.8879588,15.6361089 C24.7101173,16.0913247 24.5424993,16.5459585 24.3851049,17 Z M41.120528,63.0000008 C41.6279331,63.5635885 42.1430978,64.124712 42.6660209,64.6833708 L43.3960923,63 L41.1205189,63 Z M1.00557655,63 L0.0183171689,63 L1.01818238,63.9835819 C1.01277545,63.654298 1.00857358,63.3264374 1.00557655,63 Z M1.00557655,63 C0.808474627,41.5315958 5.82248247,26.2187065 15.9858101,17 C19.6591842,17 20.1382397,17 24.3851052,17 C21.4818571,25.3751037 22.0570709,33.548692 26.1100875,41.4561313 C29.975704,48.9979528 34.9798867,56.1794352 41.120528,63.0000008 L1.00557655,63 Z"></path>
                    </g>
                    <path d="M15.723502,25 C12.8945914,29.5602594 11.3200908,35.4247666 11,42.5935215" id="Path-6" stroke="#4E4D4D" stroke-width="2" stroke-linecap="round" stroke-linejoin="round"></path>
                    <g id="Path-3-Copy">
                        <use fill="#FDA52B" fill-rule="evenodd" xlink:href="#path-2"></use>
                        <path stroke="#4E4D4D" stroke-width="2" d="M1.01072401,63 L41.106709,63 C37.5823435,59.1027271 34.2387932,54.7692524 31.0757707,50 L1.59192379,50 C1.17860643,53.4356724 0.984246213,57.7707072 1.01072401,63 Z"></path>
                    </g>
                    <g id="Path-5" transform="translate(32.717617, 14.495799) rotate(24.000000) translate(-32.717617, -14.495799) ">
                        <use fill="#FDA52B" fill-rule="evenodd" xlink:href="#path-3"></use>
                        <path stroke="#4E4D4D" stroke-width="2" d="M30.9295587,10.4133634 C27.1357775,11.5206697 25.5990895,13.3176084 25.9883717,15.8479428 C26.239222,17.4784697 30.4828191,18.8900102 35.2633783,18.9868163 C37.0225855,19.0224402 38.5126607,18.8503847 39.2558122,18.573676 C39.0084761,18.390367 38.6138994,18.1587935 38.074203,17.9048187 C33.1338011,15.5799237 30.6227302,13.0618354 30.9295587,10.4133634 Z"></path>
                    </g>
                    <g id="Combined-Shape">
                        <use fill="#F27802" fill-rule="evenodd" xlink:href="#path-4"></use>
                        <path stroke="#4E4D4D" stroke-width="2" d="M47,7.02560525 L47,2 C47,1.44771525 46.5522847,1 46,1 L10,1 C9.44771525,1 9,1.44771525 9,2 L9,19 L25.0660802,19 C25.9388784,12.4316393 35.3519669,7.42422322 46.9999912,7.02560555 Z"></path>
                    </g>
                </g>
                <path d="M0.5,184 L335.5,184" id="Line" stroke="#4E4D4D" stroke-width="2" stroke-linecap="round"></path>
                <g id="Bucket" transform="translate(20.000000, 118.000000)">
                    <g id="Group" transform="translate(10.000000, 20.000000)">
                        <polygon id="Orange-BG" fill="#FDA52B" points="3 34 4 46 38 46 39 33 3 33"></polygon>
                        <polygon id="White-BG" fill="#FFFFFF" points="3 32 1 2 41 2 39 33 3 33"></polygon>
                        <path d="M1.06734179,2 L3.93690701,46 L38.063093,46 L40.9326582,2 L1.06734179,2 Z" id="Rectangle-35-Copy-2" stroke="#4E4D4D" stroke-width="2"></path>
                        <g id="Oval-10" transform="translate(15.000000, 0.000000)">
                            <mask id="mask-6" fill="white">
                                <use xlink:href="#path-5"></use>
                            </mask>
                            <g id="Mask"></g>
                            <path d="M14.469654,21.1123693 C26.687949,21.1123693 36.469654,16.4341626 36.469654,11.1123693 C36.469654,5.79057608 26.687949,1.11236934 14.469654,1.11236934 C2.25135905,1.11236934 -7.53034596,5.79057608 -7.53034596,11.1123693 C-7.53034596,16.4341626 2.25135905,21.1123693 14.469654,21.1123693 Z" stroke="#4E4D4D" stroke-width="2" mask="url(#mask-6)" transform="translate(14.469654, 11.112369) rotate(23.000000) translate(-14.469654, -11.112369) "></path>
                        </g>
                        <g id="Oval-9-Copy">
                            <use fill="#FFFFFF" fill-rule="evenodd" xlink:href="#path-7"></use>
                            <circle stroke="#4E4D4D" stroke-width="2" cx="16" cy="15" r="2"></circle>
                        </g>
                    </g>
                    <path d="M35.4901953,22.6510565 C34.6993687,22.8782808 33.8638989,23 33,23 C31.3010278,23 29.712009,22.5292332 28.3562722,21.711028 C27.1028241,22.5263364 25.6067271,23 24,23 C22.4012869,23 20.912103,22.5310496 19.6625015,21.7232021 C18.0771064,24.2897409 15.2382794,26 12,26 C7.02943725,26 3,21.9705627 3,17 C3,12.3504438 6.52578869,8.52437966 11.0495879,8.04958576 C11.5244011,3.52578758 15.3506121,0 20.0003467,0 C23.9846366,0 27.3642521,2.58881886 28.5487296,6.17605413 C29.8614386,5.42760562 31.380783,5 33,5 C33.2287038,5 33.4554151,5.00853061 33.6798331,5.02529098 C35.0935989,3.76551125 36.9574021,3 39,3 C43.418278,3 47,6.581722 47,11 C47,11.0277095 46.9998591,11.0553862 46.999578,11.0830292 C47.3249195,11.0284234 47.6591404,11 48,11 C49.2431824,11 50.3980573,11.3780892 51.3559093,12.025552 C51.5683753,12.0086255 51.7831804,12 52,12 C56.418278,12 60,15.581722 60,20 C60,21.5471465 59.5608138,22.9917156 58.8003116,24.2158371 C58.9309899,24.7895454 59,25.3867136 59,26 C59,30.418278 55.418278,34 51,34 C46.581722,34 43,30.418278 43,26 C43,25.9793406 43.0000783,25.9586995 43.0002347,25.938077 C42.6725651,25.9789466 42.3387412,26 42,26 C39.3164063,26 36.9414314,24.6786455 35.4901953,22.6510565 Z" id="Combined-Shape" stroke="#4E4D4D" stroke-width="2" fill="#FFFFFF"></path>
                    <g id="Bubble-Edges" stroke="#4E4D4D" stroke-width="2" stroke-linecap="round">
                        <path d="M12,8 C7.02943725,8 3,12.0294373 3,17 C3,21.9705627 7.02943725,26 12,26 L12,26 C16.9705627,26 21,21.9705627 21,17" id="Oval-11" transform="translate(12.000000, 17.000000) rotate(-345.000000) translate(-12.000000, -17.000000) "></path>
                        <path d="M41.3250808,25.609929 C41.3250808,30.028207 44.9068028,33.609929 49.3250808,33.609929 C53.7433588,33.609929 57.3250808,30.028207 57.3250808,25.609929" id="Oval-11-Copy-9" transform="translate(49.325081, 29.609929) rotate(25.000000) translate(-49.325081, -29.609929) "></path>
                        <path d="M29.0006935,9 C29.0006935,4.02943725 24.971101,0 20.0003467,0" id="Oval-11-Copy" fill="#FFFFFF"></path>
                    </g>
                    <rect id="Rectangle-3" fill="#4E4D4D" x="13" y="52" width="36" height="2"></rect>
                </g>
                <g id="Vacuum" transform="translate(63.000000, 0.000000)">
                    <g id="Rectangle-8">
                        <use fill="#FFFFFF" fill-rule="evenodd" xlink:href="#path-8"></use>
                        <rect stroke="#4E4D4D" stroke-width="2" x="26" y="153" width="6" height="6"></rect>
                    </g>
                    <g id="Rectangle-7">
                        <use fill="#FDA52B" fill-rule="evenodd" xlink:href="#path-9"></use>
                        <rect stroke="#4E4D4D" stroke-width="2" x="18" y="159" width="22" height="6" rx="2"></rect>
                    </g>
                    <g id="Rectangle-7-Copy">
                        <use fill="#FFFFFF" fill-rule="evenodd" xlink:href="#path-10"></use>
                        <path stroke="#4E4D4D" stroke-width="2" d="M15.5740908,165 C14.9426042,165 13.7843693,165.71961 13.1686892,166.581338 L8.16739071,173.581338 C7.88599927,173.975184 7.90195343,174 8.63951725,174 L49.3604828,174 C50.0980466,174 50.1140007,173.975184 49.8326093,173.581338 L44.8313108,166.581338 C44.2156307,165.71961 43.0573958,165 42.4259092,165 L15.5740908,165 Z"></path>
                    </g>
                    <g id="Rectangle-6">
                        <use fill="#F27802" fill-rule="evenodd" xlink:href="#path-11"></use>
                        <rect stroke="#4E4D4D" stroke-width="2" x="1" y="174" width="58" height="10" rx="4"></rect>
                    </g>
                    <g id="Rectangle-5">
                        <use fill="#F27802" fill-rule="evenodd" xlink:href="#path-12"></use>
                        <path stroke="#4E4D4D" stroke-width="2" d="M26,47 L32,47 L32,2 C32,1.44771525 31.5522847,1 31,1 L27,1 C26.4477153,1 26,1.44771525 26,2 L26,47 Z"></path>
                    </g>
                    <g id="Rectangle-34">
                        <use fill="#FFFFFF" fill-rule="evenodd" xlink:href="#path-13"></use>
                        <path stroke="#4E4D4D" stroke-width="2" d="M11.8673384,47 C6.40637497,47 2.47858634,51.3810109 3.05647463,56.8312704 L12.1884331,142.957853 C12.7816359,148.552549 15.8948783,153 18.8497689,153 L39.1502311,153 C42.1051217,153 45.2183641,148.552549 45.8115669,142.957853 L54.9435254,56.8312704 C55.5214137,51.3810109 51.593625,47 46.1326616,47 L11.8673384,47 Z"></path>
                    </g>
                    <g id="Rectangle-34-Copy-2">
                        <use fill="#FDA52B" fill-rule="evenodd" xlink:href="#path-14"></use>
                        <path stroke="#4E4D4D" stroke-width="2" d="M20.1163977,57 C17.5635298,57 15.7601508,58.9396303 16.0261825,61.3590567 L20.7612721,104.422348 C21.0443715,106.996997 22.4984158,109 23.7369172,109 L34.2630828,109 C35.5015842,109 36.9556285,106.996997 37.2387279,104.422348 L41.9738175,61.3590567 C42.2398492,58.9396303 40.4364702,57 37.8836023,57 L20.1163977,57 Z"></path>
                    </g>
                </g>
                <g id="Loose-Bubbles" transform="translate(140.000000, 170.000000)" stroke="#4E4D4D" stroke-width="2">
                    <path d="M29.6468481,21.9247581 C28.320765,24.5092954 25.6292032,26.2777778 22.5245902,26.2777778 C19.2659245,26.2777778 16.4623187,24.3294348 15.2151318,21.5341078 C13.6967121,22.4639868 11.9109523,23 10,23 C4.4771525,23 0,18.5228475 0,13 C0,7.4771525 4.4771525,3 10,3 C13.1005759,3 15.8715698,4.41110891 17.7058026,6.62614793 C18.7942509,5.51954475 20.3087921,4.83333333 21.9836066,4.83333333 C25.0363602,4.83333333 27.5566242,7.11319272 27.9346343,10.0631473 C28.313652,9.98810224 28.7055097,9.94875479 29.1065574,9.94875479 C32.4202659,9.94875479 35.1065574,12.6350463 35.1065574,15.9487548 C35.1065574,19.0803576 32.7074047,21.6516083 29.6468481,21.9247581 Z" id="Loose-bubbles" fill="#FFFFFF"></path>
                    <g id="Overlaps" transform="translate(6.000000, 0.000000)" stroke-linecap="round">
                        <path d="M8.52459016,18.2777778 C8.52459016,22.6960558 12.1063122,26.2777778 16.5245902,26.2777778 L16.5245902,26.2777778" id="Oval-11-Copy-4" fill="#FFFFFF"></path>
                        <path d="M12.2101976,11.6996324 C12.2101976,6.17678495 7.73304511,1.69963245 2.21019761,1.69963245" id="Oval-11" transform="translate(7.210198, 6.699632) rotate(-18.000000) translate(-7.210198, -6.699632) "></path>
                    </g>
                </g>
            </g>
        </g>
    </g>
</svg>