<svg id="Layer_1" data-name="Layer 1" xmlns="http://www.w3.org/2000/svg" viewBox="0 0 228 68"><defs><style>.cls-1{fill:#fff;}.cls-2{fill:#e1e3e3;}.cls-3{fill:none;stroke:#edeeee;stroke-linecap:round;stroke-width:2px;}</style></defs><title>quote</title><g id="R2"><g id="Artboard-3"><g id="quote"><rect id="Rectangle-Copy-2" class="cls-1" width="228" height="68" rx="8.8" ry="8.8"/><g id="stars"><polygon id="Star-1" class="cls-2" points="79.45 27.84 74.8 30.43 75.69 24.95 71.93 21.07 77.13 20.27 79.45 15.28 81.78 20.27 86.98 21.07 83.22 24.95 84.11 30.43 79.45 27.84"/><polygon id="Star-1-Copy-2" class="cls-2" points="115.58 27.84 110.93 30.43 111.82 24.95 108.06 21.07 113.25 20.27 115.58 15.28 117.91 20.27 123.11 21.07 119.34 24.95 120.23 30.43 115.58 27.84"/><polygon id="Star-1-Copy" class="cls-2" points="97.52 27.84 92.87 30.43 93.75 24.95 89.99 21.07 95.19 20.27 97.52 15.28 99.84 20.27 105.04 21.07 101.28 24.95 102.17 30.43 97.52 27.84"/><polygon id="Star-1-Copy-3" class="cls-2" points="133.64 27.84 128.99 30.43 129.88 24.95 126.12 21.07 131.32 20.27 133.64 15.28 135.97 20.27 141.17 21.07 137.41 24.95 138.29 30.43 133.64 27.84"/><polygon id="Star-1-Copy-4" class="cls-2" points="151.71 27.84 147.06 30.43 147.94 24.95 144.18 21.07 149.38 20.27 151.71 15.28 154.03 20.27 159.23 21.07 155.47 24.95 156.36 30.43 151.71 27.84"/></g><path id="Line" class="cls-3" d="M75.45,41h60"/><path id="Line-2" data-name="Line" class="cls-3" d="M75.45,49h52.26"/><path id="_" data-name="$" class="cls-2" d="M202.28,21.36a11.85,11.85,0,0,1,3.33.56,8.18,8.18,0,0,1,2.91,1.57L206.09,26a4.4,4.4,0,0,0-1.73-1.18,5.68,5.68,0,0,0-2.09-.41v6.06q1.14,0.36,2.28.84a8.57,8.57,0,0,1,2.05,1.22,5.83,5.83,0,0,1,1.49,1.78,5.35,5.35,0,0,1,.57,2.58,6.72,6.72,0,0,1-.52,2.74,5.75,5.75,0,0,1-1.41,2,6.18,6.18,0,0,1-2,1.22,7.54,7.54,0,0,1-2.42.45v2.16h-1.62V43.29a11.84,11.84,0,0,1-3.79-.74,9.4,9.4,0,0,1-3.26-2.06L196.25,38a6.33,6.33,0,0,0,2,1.58,5.63,5.63,0,0,0,2.37.65V33.54a21.47,21.47,0,0,1-2.46-.83,7.42,7.42,0,0,1-2-1.18,5.11,5.11,0,0,1-1.33-1.73,5.64,5.64,0,0,1-.48-2.44,5.39,5.39,0,0,1,.53-2.42,5.59,5.59,0,0,1,1.41-1.82,7,7,0,0,1,2-1.18,8.09,8.09,0,0,1,2.32-.52v-2h1.62v2Zm-1.62,3.06a3.52,3.52,0,0,0-1.86.78,2.4,2.4,0,0,0-.81,2,2.35,2.35,0,0,0,.76,1.9,5.12,5.12,0,0,0,1.9,1V24.42Zm1.62,15.78a2.8,2.8,0,0,0,2-.9,3.13,3.13,0,0,0,.76-2.19,2.47,2.47,0,0,0-.79-2,6.23,6.23,0,0,0-2-1.1V40.2Z"/></g></g></g></svg>